<svg width="318" height="136" viewBox="0 0 318 136" fill="none" xmlns="http://www.w3.org/2000/svg">
<g clip-path="url(#clip0_401_1782)">
<path d="M131.601 74.2655L79.7896 18.1482C76.885 15.002 72.5512 13.6119 68.3588 14.4665L62.2099 15.7278L39.5525 20.3666L39.1123 20.4551C38.889 20.5004 38.6704 20.5516 38.4541 20.6095C38.3407 20.6399 38.2251 20.6744 38.109 20.7094C35.6996 21.4177 33.5998 22.8416 32.0614 24.7523C31.0659 25.9837 30.3018 27.4179 29.8399 28.9923L21.3869 57.8452C20.1822 61.9638 21.2206 66.416 24.1348 69.5709L75.926 125.667C78.5707 128.53 82.1298 130.039 85.735 130.166C88.6755 130.273 91.6493 129.458 94.1867 127.703C94.7272 127.33 95.249 126.914 95.7487 126.456L100.37 122.188L130.808 94.086C136.501 88.8307 136.855 79.9556 131.601 74.2655ZM52.4706 50.9224C52.3533 51.1158 52.2371 51.3018 52.1127 51.4822C52.0605 51.5625 52.0017 51.6445 51.9443 51.7187C51.7569 51.9678 51.5558 52.2056 51.3464 52.4276C51.2754 52.5054 51.2066 52.5792 51.1326 52.6468C51.0616 52.7247 50.985 52.7969 50.9103 52.8609C48.3617 55.193 44.502 55.7229 41.3487 53.9025C37.4498 51.6487 36.117 46.6747 38.3685 42.7803C40.4169 39.2274 44.7335 37.8057 48.4374 39.2909C48.6848 39.3901 48.936 39.5032 49.1841 39.632C49.2843 39.6898 49.386 39.7399 49.4908 39.8004C53.3842 42.048 54.7169 47.0219 52.4706 50.9224Z" fill="#E8E8E8"/>
<path d="M75.9261 125.667C78.5708 128.53 82.1299 130.039 85.7351 130.166C88.6756 130.273 91.6493 129.458 94.1867 127.703C94.7272 127.33 95.2491 126.914 95.7488 126.456L100.37 122.188L130.808 94.086C136.501 88.8309 136.855 79.9558 131.601 74.2657L107.397 48.0498L77.4054 30.7342C76.3055 29.9545 75.0713 29.348 73.738 28.9615L67.7058 27.2151L45.0614 20.6615C43.2039 20.1241 41.285 20.0482 39.4497 20.387L39.1434 20.4487C39.0489 20.4686 38.9548 20.4919 38.8606 20.5141C38.7414 20.5411 38.621 20.567 38.5038 20.5978C38.2929 20.6544 38.0844 20.7196 37.8762 20.7875C37.7918 20.8142 37.7084 20.8434 37.625 20.8718C35.8604 21.4901 34.2295 22.5115 32.882 23.9043L32.0575 24.7569C31.0639 25.9873 30.3011 27.4198 29.8396 28.9921L21.3867 57.845C20.182 61.9636 21.2204 66.4158 24.1345 69.5707L75.9261 125.667ZM38.3682 42.7801C40.4167 39.2272 44.7332 37.8055 48.4372 39.2907C48.6846 39.3899 48.9357 39.5031 49.1839 39.6318C49.2841 39.6897 49.3858 39.7397 49.4905 39.8002C53.3843 42.0482 54.717 47.0217 52.4707 50.9224C52.3534 51.1158 52.2372 51.3018 52.1128 51.4822C52.0606 51.5625 52.0018 51.6445 51.9444 51.7187C51.757 51.9678 51.5559 52.2056 51.3464 52.4276C51.2755 52.5054 51.2067 52.5792 51.1327 52.6468C51.0617 52.7247 50.9851 52.7969 50.9104 52.8609C48.3618 55.193 44.502 55.7228 41.3488 53.9025C37.4498 51.6487 36.1171 46.6747 38.3682 42.7801Z" fill="url(#paint0_linear_401_1782)"/>
<path d="M80.048 34.519L74.6733 31.2709L54.4967 19.0801C50.6239 16.7413 45.7741 16.733 41.8934 19.0602L16.1099 34.527C12.4294 36.7335 10.1748 40.7105 10.1748 45.0038V121.354C10.1748 129.1 16.4544 135.379 24.2038 135.379H71.922C79.6676 135.379 85.947 129.1 85.947 121.354V44.9756C85.9473 40.6943 83.7083 36.7335 80.048 34.519ZM42.3059 50.2262C39.1258 47.0422 39.1258 41.892 42.3059 38.7122C45.2054 35.8126 49.7428 35.5565 52.9349 37.9472C53.1511 38.1073 53.3633 38.2837 53.5676 38.4718C53.6515 38.5517 53.7357 38.628 53.8199 38.7122C56.9997 41.892 56.9997 47.0424 53.8199 50.2262C53.6597 50.3824 53.4993 50.5346 53.3314 50.6749C53.2594 50.7389 53.1832 50.8032 53.1072 50.8592C52.8629 51.0515 52.6068 51.2316 52.3462 51.3918C52.2583 51.4478 52.1699 51.5002 52.0819 51.548C51.994 51.604 51.9016 51.6521 51.8136 51.6962C48.7457 53.2899 44.8811 52.8014 42.3059 50.2262Z" fill="#FDC347"/>
<path d="M85.9474 121.354C85.9474 121.354 85.9474 121.017 85.9474 120.394L38.8999 73.3579C37.0745 71.8983 34.6578 71.1673 31.6488 71.1673C25.0393 71.1673 21.7344 74.2121 21.7344 80.3018V91.2929C21.7344 94.5895 22.7116 96.986 24.6488 98.498L61.5306 135.38H71.9224C79.6677 135.379 85.9474 129.1 85.9474 121.354Z" fill="url(#paint1_linear_401_1782)"/>
<path d="M63.6494 69.0877C63.0005 68.5435 62.278 68.2707 61.4795 68.2707C60.3934 68.2707 59.6531 68.7164 59.2584 69.6075L32.0942 124.174C31.8971 124.521 31.7986 124.892 31.7986 125.288C31.7986 125.981 32.0724 126.612 32.621 127.182L40.8187 135.379H71.922C79.6677 135.379 85.947 129.1 85.947 121.354C85.947 121.354 85.947 111.394 85.947 98.9873V91.495L63.6494 69.0877Z" fill="url(#paint2_linear_401_1782)"/>
<path d="M71.6501 98.3848C69.8247 96.9252 67.4078 96.1942 64.3991 96.1942C57.7895 96.1942 54.4846 99.2391 54.4846 105.329V116.32C54.4846 119.616 55.4619 122.013 57.3991 123.525L69.2536 135.379H71.9216C79.6672 135.379 85.9466 129.1 85.9466 121.354C85.9466 121.354 85.9466 117.963 85.9466 112.678L71.6501 98.3848Z" fill="url(#paint3_linear_401_1782)"/>
<path d="M21.7344 91.2926V80.3016C21.7344 74.2119 25.0393 71.167 31.6488 71.167C34.6576 71.167 37.0747 71.898 38.8999 73.3576C40.7239 74.8186 41.6371 77.1338 41.6371 80.3013V91.2924C41.6371 94.4613 40.7242 96.7762 38.8999 98.2361C37.0745 99.697 34.6576 100.427 31.6488 100.427C25.0393 100.427 21.7344 97.3821 21.7344 91.2926ZM27.007 91.1686C27.007 94.0243 28.554 95.4515 31.6486 95.4515C34.7917 95.4515 36.3639 94.0243 36.3639 91.1686V80.4257C36.3639 77.5712 34.7917 76.143 31.6486 76.143C28.5538 76.143 27.007 77.5712 27.007 80.4257C27.0073 80.4257 27.0073 91.1686 27.007 91.1686ZM31.7986 125.288C31.7986 124.892 31.8972 124.521 32.0943 124.174L59.2587 69.6075C59.6534 68.7164 60.3937 68.2707 61.4798 68.2707C62.278 68.2707 63.0008 68.5435 63.6497 69.0877C64.2984 69.633 64.6233 70.3014 64.6233 71.0927C64.6233 71.4898 64.5489 71.8853 64.4015 72.2808L37.2349 126.625C36.79 127.565 35.9514 128.036 34.7179 128.036C33.8689 128.036 33.1703 127.75 32.621 127.182C32.0725 126.612 31.7986 125.981 31.7986 125.288ZM54.4851 116.473V105.398C54.4851 99.2622 57.7901 96.1942 64.3996 96.1942C67.4083 96.1942 69.8255 96.9311 71.6506 98.4024C73.4747 99.8737 74.3879 102.206 74.3879 105.398V116.473C74.3879 119.666 73.4747 121.998 71.6506 123.47C69.8253 124.941 67.4083 125.677 64.3996 125.677C57.7898 125.677 54.4851 122.609 54.4851 116.473ZM59.7578 116.37C59.7578 119.257 61.3048 120.701 64.3993 120.701C67.5425 120.701 69.1147 119.258 69.1147 116.37V105.501C69.1147 102.614 67.5425 101.169 64.3993 101.169C61.3045 101.169 59.7578 102.614 59.7578 105.501V116.37Z" fill="url(#paint4_linear_401_1782)"/>
<path d="M85.9469 44.9748V70.9376L54.4831 39.4738C54.2804 39.2105 54.06 38.9545 53.8217 38.7127C53.7364 38.6275 53.6509 38.5528 53.5691 38.4708C53.5122 38.4174 53.4551 38.3674 53.3948 38.3215C53.2456 38.1863 53.0888 38.062 52.9361 37.9483C49.892 35.6687 45.6285 35.7933 42.7268 38.3255V18.6033C46.0801 16.9318 50.0166 16.893 53.3951 18.4894C53.7683 18.6636 54.1383 18.8626 54.4974 19.0799L74.6746 31.2699L80.0476 34.5201C83.7066 36.732 85.9469 40.6932 85.9469 44.9748Z" fill="url(#paint5_linear_401_1782)"/>
<path d="M48.0608 48.0189C45.115 48.0189 42.7268 45.6307 42.7268 42.6849V5.33402C42.7268 2.38823 45.115 0 48.0608 0C51.0066 0 53.3948 2.38823 53.3948 5.33402V42.6846C53.3951 45.6307 51.0066 48.0189 48.0608 48.0189Z" fill="url(#paint6_linear_401_1782)"/>
</g>
<path d="M168.625 58H175.485C182.135 58 186.72 54.395 186.72 46.52C186.72 38.61 182.135 35.215 175.17 35.215H168.625V58ZM174.085 53.625V39.59H174.855C178.53 39.59 181.155 41.095 181.155 46.52C181.155 51.91 178.53 53.625 174.855 53.625H174.085ZM194.9 58.42C196.86 58.42 198.435 57.545 199.87 56.25H200.01L200.395 58H204.805V48.13C204.805 42.67 202.285 40.185 197.805 40.185C195.075 40.185 192.59 41.06 190.315 42.46L192.205 45.96C193.955 44.98 195.355 44.49 196.755 44.49C198.54 44.49 199.275 45.33 199.415 46.765C192.555 47.465 189.72 49.46 189.72 53.135C189.72 56.04 191.715 58.42 194.9 58.42ZM196.755 54.22C195.565 54.22 194.9 53.73 194.9 52.715C194.9 51.49 195.95 50.545 199.415 50.09V52.855C198.575 53.695 197.84 54.22 196.755 54.22ZM209.05 58H214.44V40.605H209.05V58ZM211.745 38.155C213.53 38.155 214.79 37.07 214.79 35.355C214.79 33.675 213.53 32.59 211.745 32.59C209.96 32.59 208.7 33.675 208.7 35.355C208.7 37.07 209.96 38.155 211.745 38.155ZM223.794 58.42C224.984 58.42 225.894 58.21 226.489 57.965L225.859 53.975C225.579 54.045 225.439 54.045 225.229 54.045C224.809 54.045 224.249 53.695 224.249 52.575V33.535H218.859V52.365C218.859 56.005 220.084 58.42 223.794 58.42ZM231.146 64.72C235.311 64.72 237.166 62.515 238.881 58.035L244.866 40.605H239.686L237.691 47.815C237.236 49.46 236.886 51.105 236.501 52.75H236.361C235.906 51.035 235.521 49.425 235.031 47.815L232.651 40.605H227.226L233.911 57.51L233.666 58.35C233.246 59.61 232.406 60.485 230.726 60.485C230.376 60.485 230.131 60.45 229.571 60.31L228.626 64.3C229.326 64.58 230.026 64.72 231.146 64.72ZM168.625 100H175.485C182.135 100 186.72 96.395 186.72 88.52C186.72 80.61 182.135 77.215 175.17 77.215H168.625V100ZM174.085 95.625V81.59H174.855C178.53 81.59 181.155 83.095 181.155 88.52C181.155 93.91 178.53 95.625 174.855 95.625H174.085ZM190.49 100H195.88V82.605H190.49V100ZM193.185 80.155C194.97 80.155 196.23 79.07 196.23 77.355C196.23 75.675 194.97 74.59 193.185 74.59C191.4 74.59 190.14 75.675 190.14 77.355C190.14 79.07 191.4 80.155 193.185 80.155ZM205.515 100.42C210.24 100.42 212.76 97.935 212.76 94.75C212.76 91.88 210.66 90.305 208 89.465C205.795 88.765 204.815 88.345 204.815 87.435C204.815 86.665 205.41 86.175 206.67 86.175C207.86 86.175 209.155 86.525 210.415 87.435L212.725 84.39C211.22 83.13 209.05 82.185 206.495 82.185C202.435 82.185 199.775 84.39 199.775 87.68C199.775 90.375 201.875 91.95 204.36 92.86C206.215 93.56 207.685 94.015 207.685 95.065C207.685 95.905 207.09 96.43 205.62 96.43C204.255 96.43 202.68 96.01 201.07 94.75L198.795 97.795C200.545 99.51 203.205 100.42 205.515 100.42ZM223.585 100.42C225.44 100.42 227.645 99.895 229.325 98.355L227.225 94.96C226.35 95.625 225.37 96.045 224.215 96.045C222.08 96.045 220.47 94.19 220.47 91.285C220.47 88.415 221.975 86.525 224.39 86.525C225.16 86.525 225.825 86.77 226.63 87.365L229.15 84.04C227.855 82.92 226.21 82.185 224.075 82.185C219.245 82.185 214.94 85.51 214.94 91.285C214.94 97.06 218.685 100.42 223.585 100.42ZM238.86 100.42C243.305 100.42 247.4 97.06 247.4 91.285C247.4 85.51 243.305 82.185 238.86 82.185C234.45 82.185 230.355 85.51 230.355 91.285C230.355 97.06 234.45 100.42 238.86 100.42ZM238.86 96.045C236.83 96.045 235.885 94.19 235.885 91.285C235.885 88.415 236.83 86.525 238.86 86.525C240.89 86.525 241.835 88.415 241.835 91.285C241.835 94.19 240.89 96.045 238.86 96.045ZM256.067 100.42C258.412 100.42 260.057 99.335 261.492 97.62H261.632L262.017 100H266.427V82.605H261.002V94.015C260.057 95.31 259.322 95.8 258.097 95.8C256.697 95.8 256.067 95.1 256.067 92.685V82.605H250.642V93.385C250.642 97.725 252.252 100.42 256.067 100.42ZM270.847 100H276.237V88.345C277.322 87.365 278.057 86.77 279.282 86.77C280.682 86.77 281.312 87.505 281.312 89.92V100H286.737V89.22C286.737 84.88 285.127 82.185 281.347 82.185C278.967 82.185 277.217 83.375 275.782 84.775H275.642L275.257 82.605H270.847V100ZM297.803 100.42C299.518 100.42 300.848 100.07 301.758 99.72L300.918 95.94C300.463 96.115 299.868 96.185 299.308 96.185C298.013 96.185 297.103 95.45 297.103 93.49V86.84H301.198V82.605H297.103V77.285H292.623L291.993 82.605L289.333 82.78V86.84H291.678V93.56C291.678 97.655 293.463 100.42 297.803 100.42ZM309.421 100.42C314.146 100.42 316.666 97.935 316.666 94.75C316.666 91.88 314.566 90.305 311.906 89.465C309.701 88.765 308.721 88.345 308.721 87.435C308.721 86.665 309.316 86.175 310.576 86.175C311.766 86.175 313.061 86.525 314.321 87.435L316.631 84.39C315.126 83.13 312.956 82.185 310.401 82.185C306.341 82.185 303.681 84.39 303.681 87.68C303.681 90.375 305.781 91.95 308.266 92.86C310.121 93.56 311.591 94.015 311.591 95.065C311.591 95.905 310.996 96.43 309.526 96.43C308.161 96.43 306.586 96.01 304.976 94.75L302.701 97.795C304.451 99.51 307.111 100.42 309.421 100.42Z" fill="url(#paint7_linear_401_1782)"/>
<defs>
<linearGradient id="paint0_linear_401_1782" x1="62.5023" y1="14.1675" x2="122.935" y2="103.535" gradientUnits="userSpaceOnUse">
<stop stop-color="white"/>
<stop offset="1" stop-color="white" stop-opacity="0"/>
</linearGradient>
<linearGradient id="paint1_linear_401_1782" x1="50.2949" y1="104.481" x2="28.0501" y2="82.2361" gradientUnits="userSpaceOnUse">
<stop stop-color="#FDC347" stop-opacity="0"/>
<stop offset="1" stop-color="#F59500"/>
</linearGradient>
<linearGradient id="paint2_linear_401_1782" x1="73.9134" y1="123.915" x2="39.6661" y2="89.6676" gradientUnits="userSpaceOnUse">
<stop stop-color="#FDC347" stop-opacity="0"/>
<stop offset="1" stop-color="#F59500"/>
</linearGradient>
<linearGradient id="paint3_linear_401_1782" x1="89.4967" y1="135.965" x2="55.5988" y2="102.065" gradientUnits="userSpaceOnUse">
<stop stop-color="#FDC347" stop-opacity="0"/>
<stop offset="1" stop-color="#F59500"/>
</linearGradient>
<linearGradient id="paint4_linear_401_1782" x1="48.06" y1="82.2145" x2="48.06" y2="148.936" gradientUnits="userSpaceOnUse">
<stop stop-color="white"/>
<stop offset="1" stop-color="#E2EDF2"/>
</linearGradient>
<linearGradient id="paint5_linear_401_1782" x1="82.6256" y1="51.9127" x2="28.2748" y2="21.652" gradientUnits="userSpaceOnUse">
<stop stop-color="#FDC347"/>
<stop offset="1" stop-color="#F59500"/>
</linearGradient>
<linearGradient id="paint6_linear_401_1782" x1="39" y1="21.5" x2="55" y2="44" gradientUnits="userSpaceOnUse">
<stop stop-color="#FF7A7A"/>
<stop offset="1" stop-color="#F75900"/>
</linearGradient>
<linearGradient id="paint7_linear_401_1782" x1="99.2317" y1="-78.3001" x2="391.297" y2="-52.0585" gradientUnits="userSpaceOnUse">
<stop stop-color="#FB3C00"/>
<stop offset="1" stop-color="#FFB800"/>
</linearGradient>
<clipPath id="clip0_401_1782">
<rect width="136" height="136" fill="white"/>
</clipPath>
</defs>
</svg>
