<svg width="282" height="136" viewBox="0 0 282 136" fill="none" xmlns="http://www.w3.org/2000/svg">
<g clip-path="url(#clip0_401_1795)">
<path d="M14.864 88.1771L1.01024 121.797C-1.11484 126.954 0.335657 136 3.28777 136H132.712C135.672 136 137.119 126.914 134.978 121.769L120.983 88.1273C119.881 85.4774 118.415 84 116.891 84H18.9758C17.4425 84.0008 15.9683 85.4973 14.864 88.1771Z" fill="url(#paint0_linear_401_1795)"/>
<path d="M79.7499 93.577L79.7385 93.5688H56.2971C58.73 96.2926 60.9556 98.6833 62.7981 100.618L79.7499 116.542H103.729L79.7499 93.577Z" fill="url(#paint1_linear_401_1795)"/>
<path d="M68.0181 0C44.851 0 26.0696 18.7989 26.0696 41.9873C26.0696 60.0646 51.5604 88.8175 62.7985 100.618C65.6408 103.603 70.3957 103.603 73.238 100.618C84.4789 88.8175 109.97 60.0646 109.97 41.9873C109.969 18.7989 91.188 0 68.0181 0ZM68.0181 57.9593C59.2053 57.9593 52.0611 50.8083 52.0611 41.9875C52.0611 33.1667 59.2055 26.0157 68.0181 26.0157C76.8307 26.0157 83.9752 33.1667 83.9752 41.9875C83.9752 50.8083 76.8307 57.9593 68.0181 57.9593Z" fill="url(#paint2_linear_401_1795)"/>
<circle cx="68" cy="42.3958" r="25" fill="white"/>
<path d="M68.0178 17C54.0121 17 42.658 28.3647 42.658 42.3834C42.658 56.4021 54.0121 67.7668 68.0178 67.7668C82.0235 67.7668 93.3776 56.4021 93.3776 42.3834C93.3776 28.3647 82.0233 17 68.0178 17ZM68.0178 58.3552C59.205 58.3552 52.0608 51.2042 52.0608 42.3834C52.0608 33.5626 59.2052 26.4116 68.0178 26.4116C76.8304 26.4116 83.9748 33.5626 83.9748 42.3834C83.9748 51.2042 76.8304 58.3552 68.0178 58.3552Z" fill="url(#paint3_linear_401_1795)"/>
</g>
<path d="M168.625 58H182.94V53.45H174.085V35.215H168.625V58ZM186.491 58H191.881V40.605H186.491V58ZM189.186 38.155C190.971 38.155 192.231 37.07 192.231 35.355C192.231 33.675 190.971 32.59 189.186 32.59C187.401 32.59 186.141 33.675 186.141 35.355C186.141 37.07 187.401 38.155 189.186 38.155ZM200.326 58H206.591L212.191 40.605H207.011L204.876 48.62C204.456 50.335 204.001 52.155 203.546 53.975H203.406C202.986 52.155 202.531 50.335 202.111 48.62L199.941 40.605H194.516L200.326 58ZM222.358 58.42C224.423 58.42 226.803 57.755 228.623 56.46L226.873 53.205C225.648 53.905 224.388 54.29 223.128 54.29C220.923 54.29 219.278 53.275 218.788 50.93H229.043C229.148 50.44 229.253 49.53 229.253 48.55C229.253 43.825 226.803 40.185 221.763 40.185C217.598 40.185 213.538 43.65 213.538 49.285C213.538 55.095 217.388 58.42 222.358 58.42ZM218.718 47.29C219.068 45.26 220.363 44.28 221.903 44.28C223.863 44.28 224.633 45.575 224.633 47.29H218.718ZM173.07 100H178.495V81.765H184.69V77.215H166.875V81.765H173.07V100ZM186.32 100H191.71V90.06C192.62 87.75 194.195 86.91 195.49 86.91C196.26 86.91 196.645 86.98 197.275 87.12L198.29 82.535C197.8 82.29 197.205 82.185 196.19 82.185C194.44 82.185 192.515 83.27 191.255 85.615H191.115L190.73 82.605H186.32V100ZM203.889 100.42C205.849 100.42 207.424 99.545 208.859 98.25H208.999L209.384 100H213.794V90.13C213.794 84.67 211.274 82.185 206.794 82.185C204.064 82.185 201.579 83.06 199.304 84.46L201.194 87.96C202.944 86.98 204.344 86.49 205.744 86.49C207.529 86.49 208.264 87.33 208.404 88.765C201.544 89.465 198.709 91.46 198.709 95.135C198.709 98.04 200.704 100.42 203.889 100.42ZM205.744 96.22C204.554 96.22 203.889 95.73 203.889 94.715C203.889 93.49 204.939 92.545 208.404 92.09V94.855C207.564 95.695 206.829 96.22 205.744 96.22ZM225.704 100.42C227.559 100.42 229.764 99.895 231.444 98.355L229.344 94.96C228.469 95.625 227.489 96.045 226.334 96.045C224.199 96.045 222.589 94.19 222.589 91.285C222.589 88.415 224.094 86.525 226.509 86.525C227.279 86.525 227.944 86.77 228.749 87.365L231.269 84.04C229.974 82.92 228.329 82.185 226.194 82.185C221.364 82.185 217.059 85.51 217.059 91.285C217.059 97.06 220.804 100.42 225.704 100.42ZM234.445 100H239.835V82.605H234.445V100ZM237.14 80.155C238.925 80.155 240.185 79.07 240.185 77.355C240.185 75.675 238.925 74.59 237.14 74.59C235.355 74.59 234.095 75.675 234.095 77.355C234.095 79.07 235.355 80.155 237.14 80.155ZM244.255 100H249.645V88.345C250.73 87.365 251.465 86.77 252.69 86.77C254.09 86.77 254.72 87.505 254.72 89.92V100H260.145V89.22C260.145 84.88 258.535 82.185 254.755 82.185C252.375 82.185 250.625 83.375 249.19 84.775H249.05L248.665 82.605H244.255V100ZM270.617 107.315C276.672 107.315 280.487 104.725 280.487 101.05C280.487 97.9 278.072 96.605 273.767 96.605H271.002C269.147 96.605 268.447 96.22 268.447 95.38C268.447 94.82 268.622 94.54 269.007 94.19C269.777 94.4 270.477 94.505 271.072 94.505C274.922 94.505 278.002 92.72 278.002 88.66C278.002 87.82 277.757 87.015 277.477 86.525H280.207V82.605H273.802C272.997 82.325 272.052 82.185 271.072 82.185C267.292 82.185 263.792 84.25 263.792 88.485C263.792 90.515 264.912 92.125 266.137 92.965V93.105C265.017 93.91 264.212 95.17 264.212 96.395C264.212 97.83 264.877 98.74 265.787 99.37V99.51C264.177 100.35 263.337 101.505 263.337 102.94C263.337 106.055 266.592 107.315 270.617 107.315ZM271.072 91.25C269.812 91.25 268.867 90.305 268.867 88.485C268.867 86.7 269.777 85.79 271.072 85.79C272.367 85.79 273.277 86.7 273.277 88.485C273.277 90.305 272.367 91.25 271.072 91.25ZM271.492 103.955C269.252 103.955 267.782 103.325 267.782 102.065C267.782 101.505 268.062 101.015 268.622 100.525C269.147 100.665 269.812 100.735 271.072 100.735H272.752C274.397 100.735 275.307 100.945 275.307 101.995C275.307 103.115 273.697 103.955 271.492 103.955Z" fill="url(#paint4_linear_401_1795)"/>
<defs>
<linearGradient id="paint0_linear_401_1795" x1="68" y1="84" x2="68" y2="136" gradientUnits="userSpaceOnUse">
<stop stop-color="white"/>
<stop offset="0.71875" stop-color="#F0F0F0"/>
<stop offset="1" stop-color="#E0E0E0"/>
</linearGradient>
<linearGradient id="paint1_linear_401_1795" x1="91.4151" y1="116.221" x2="72.4765" y2="100.828" gradientUnits="userSpaceOnUse">
<stop stop-color="#FEFEFE" stop-opacity="0"/>
<stop offset="1" stop-color="#D7D7D7"/>
</linearGradient>
<linearGradient id="paint2_linear_401_1795" x1="53.4781" y1="29.6747" x2="95.4908" y2="71.6484" gradientUnits="userSpaceOnUse">
<stop stop-color="#FFC851"/>
<stop offset="1" stop-color="#FFAE00"/>
</linearGradient>
<linearGradient id="paint3_linear_401_1795" x1="77.4717" y1="32.9201" x2="50.0449" y2="60.3236" gradientUnits="userSpaceOnUse">
<stop stop-color="#FFCB5B"/>
<stop offset="1" stop-color="#FAAE0B"/>
</linearGradient>
<linearGradient id="paint4_linear_401_1795" x1="115.045" y1="-78.3001" x2="338.685" y2="-62.9655" gradientUnits="userSpaceOnUse">
<stop stop-color="#FB3C00"/>
<stop offset="1" stop-color="#FFB800"/>
</linearGradient>
<clipPath id="clip0_401_1795">
<rect width="136" height="136" fill="white"/>
</clipPath>
</defs>
</svg>
