<svg width="471" height="140" viewBox="0 0 471 140" fill="none" xmlns="http://www.w3.org/2000/svg">
<g filter="url(#filter0_dd_401_1829)">
<rect x="40" y="20" width="202.5" height="60" rx="5" fill="white"/>
<path d="M142.204 52.6267C138.676 52.6267 135.8 55.3102 135.8 59.0062C135.8 62.6797 138.676 65.3857 142.204 65.3857C145.733 65.3857 148.609 62.6797 148.609 59.0062C148.607 55.3102 145.732 52.6267 142.204 52.6267ZM142.204 62.8747C140.27 62.8747 138.604 61.2802 138.604 59.0077C138.604 56.7112 140.272 55.1407 142.204 55.1407C144.137 55.1407 145.804 56.7112 145.804 59.0077C145.804 61.2787 144.137 62.8747 142.204 62.8747ZM128.233 52.6267C124.705 52.6267 121.829 55.3102 121.829 59.0062C121.829 62.6797 124.705 65.3857 128.233 65.3857C131.762 65.3857 134.638 62.6797 134.638 59.0062C134.638 55.3102 131.762 52.6267 128.233 52.6267ZM128.233 62.8747C126.299 62.8747 124.633 61.2802 124.633 59.0077C124.633 56.7112 126.301 55.1407 128.233 55.1407C130.166 55.1407 131.833 56.7112 131.833 59.0077C131.834 61.2787 130.166 62.8747 128.233 62.8747ZM111.616 54.5857V57.2917H118.093C117.899 58.8142 117.392 59.9257 116.618 60.6982C115.676 61.6402 114.202 62.6797 111.616 62.6797C107.629 62.6797 104.512 59.4652 104.512 55.4782C104.512 51.4912 107.629 48.2767 111.616 48.2767C113.767 48.2767 115.337 49.1227 116.497 50.2102L118.406 48.3007C116.786 46.7542 114.637 45.5707 111.616 45.5707C106.154 45.5707 101.563 50.0167 101.563 55.4782C101.563 60.9397 106.154 65.3857 111.616 65.3857C114.563 65.3857 116.788 64.4182 118.526 62.6062C120.314 60.8182 120.871 58.3042 120.871 56.2747C120.871 55.6477 120.823 55.0672 120.725 54.5842H111.616V54.5857ZM179.578 56.6872C179.047 55.2622 177.427 52.6267 174.116 52.6267C170.83 52.6267 168.098 55.2127 168.098 59.0062C168.098 62.5822 170.806 65.3857 174.43 65.3857C177.353 65.3857 179.045 63.5977 179.747 62.5582L177.572 61.1077C176.848 62.1712 175.856 62.8717 174.43 62.8717C173.005 62.8717 171.989 62.2192 171.337 60.9382L179.867 57.4102L179.578 56.6872ZM170.878 58.8142C170.806 56.3482 172.787 55.0927 174.214 55.0927C175.325 55.0927 176.267 55.6492 176.582 56.4457L170.878 58.8142ZM163.943 65.0002H166.745V46.2487H163.943V65.0002ZM159.35 54.0532H159.254C158.626 53.3032 157.417 52.6267 155.896 52.6267C152.705 52.6267 149.782 55.4302 149.782 59.0317C149.782 62.6077 152.705 65.3872 155.896 65.3872C157.418 65.3872 158.626 64.7107 159.254 63.9382H159.35V64.8562C159.35 67.2967 158.045 68.6017 155.944 68.6017C154.228 68.6017 153.164 67.3702 152.729 66.3307L150.289 67.3462C150.989 69.0367 152.849 71.1157 155.944 71.1157C159.23 71.1157 162.01 69.1822 162.01 64.4692V53.0152H159.352V54.0532H159.35ZM156.137 62.8747C154.204 62.8747 152.585 61.2547 152.585 59.0317C152.585 56.7832 154.204 55.1407 156.137 55.1407C158.045 55.1407 159.544 56.7832 159.544 59.0317C159.544 61.2547 158.045 62.8747 156.137 62.8747ZM192.709 46.2487H186.002V65.0002H188.8V57.8962H192.707C195.809 57.8962 198.86 55.6507 198.86 52.0732C198.86 48.4957 195.811 46.2487 192.709 46.2487ZM192.781 55.2862H188.8V48.8587H192.781C194.873 48.8587 196.061 50.5912 196.061 52.0732C196.061 53.5252 194.873 55.2862 192.781 55.2862ZM210.079 52.5937C208.052 52.5937 205.954 53.4862 205.085 55.4647L207.569 56.5012C208.1 55.4647 209.09 55.1257 210.127 55.1257C211.574 55.1257 213.046 55.9942 213.07 57.5377V57.7312C212.563 57.4417 211.477 57.0082 210.151 57.0082C207.473 57.0082 204.746 58.4797 204.746 61.2292C204.746 63.7387 206.942 65.3542 209.402 65.3542C211.283 65.3542 212.321 64.5097 212.972 63.5197H213.068V64.9672H215.771V57.7777C215.773 54.4507 213.286 52.5937 210.079 52.5937ZM209.74 62.8702C208.825 62.8702 207.545 62.4112 207.545 61.2772C207.545 59.8297 209.138 59.2747 210.514 59.2747C211.742 59.2747 212.323 59.5402 213.07 59.9017C212.852 61.6402 211.357 62.8702 209.74 62.8702ZM225.614 53.0032L222.406 61.1332H222.31L218.98 53.0032H215.965L220.958 64.3657L218.111 70.6867H221.03L228.727 53.0032H225.614ZM200.405 65.0002H203.203V46.2487H200.405V65.0002Z" fill="#212121"/>
<path d="M111.127 35.3644C111.127 36.6214 110.755 37.6219 110.01 38.3689C109.164 39.2569 108.06 39.7009 106.704 39.7009C105.405 39.7009 104.299 39.2509 103.392 38.3509C102.483 37.4494 102.028 36.3334 102.028 35.0014C102.028 33.6679 102.483 32.5519 103.392 31.6519C104.299 30.7504 105.405 30.3004 106.704 30.3004C107.349 30.3004 107.965 30.4264 108.55 30.6769C109.137 30.9289 109.606 31.2634 109.957 31.6819L109.167 32.4739C108.571 31.7614 107.751 31.4059 106.702 31.4059C105.754 31.4059 104.935 31.7389 104.244 32.4049C103.552 33.0709 103.207 33.9364 103.207 34.9999C103.207 36.0634 103.552 36.9289 104.244 37.5949C104.935 38.2609 105.754 38.5939 106.702 38.5939C107.707 38.5939 108.546 38.2594 109.216 37.5889C109.651 37.1524 109.903 36.5449 109.971 35.7664H106.702V34.6849H111.063C111.108 34.9204 111.127 35.1469 111.127 35.3644Z" fill="#616161"/>
<path d="M118.042 31.6055H113.944V34.4585H117.64V35.54H113.944V38.393H118.042V39.5H112.788V30.5H118.042V31.6055Z" fill="#616161"/>
<path d="M122.919 39.5H121.762V31.6055H119.248V30.5H125.433V31.6055H122.919V39.5Z" fill="#616161"/>
<path d="M129.907 39.5V30.5H131.063V39.5H129.907Z" fill="#616161"/>
<path d="M136.192 39.5H135.036V31.6055H132.522V30.5H138.706V31.6055H136.192V39.5Z" fill="#616161"/>
<path d="M150.413 38.3375C149.528 39.2465 148.429 39.701 147.113 39.701C145.798 39.701 144.698 39.2465 143.815 38.3375C142.93 37.4285 142.489 36.3155 142.489 35C142.489 33.6845 142.93 32.5715 143.815 31.6625C144.698 30.7535 145.798 30.2975 147.113 30.2975C148.421 30.2975 149.519 30.755 150.407 31.6685C151.295 32.582 151.739 33.692 151.739 35C151.739 36.3155 151.297 37.4285 150.413 38.3375ZM144.668 37.583C145.334 38.258 146.149 38.594 147.113 38.594C148.078 38.594 148.894 38.2565 149.558 37.583C150.224 36.908 150.559 36.047 150.559 35C150.559 33.953 150.224 33.092 149.558 32.417C148.894 31.742 148.078 31.406 147.113 31.406C146.149 31.406 145.334 31.7435 144.668 32.417C144.004 33.092 143.669 33.953 143.669 35C143.669 36.047 144.004 36.908 144.668 37.583Z" fill="#616161"/>
<path d="M153.362 39.5V30.5H154.769L159.143 37.5005H159.193L159.143 35.7665V30.5H160.3V39.5H159.092L154.516 32.159H154.466L154.516 33.893V39.5H153.362Z" fill="#616161"/>
<path d="M111.127 35.3644C111.127 36.6214 110.755 37.6219 110.01 38.3689C109.164 39.2569 108.06 39.7009 106.704 39.7009C105.405 39.7009 104.299 39.2509 103.392 38.3509C102.483 37.4494 102.028 36.3334 102.028 35.0014C102.028 33.6679 102.483 32.5519 103.392 31.6519C104.299 30.7504 105.405 30.3004 106.704 30.3004C107.349 30.3004 107.965 30.4264 108.55 30.6769C109.137 30.9289 109.606 31.2634 109.957 31.6819L109.167 32.4739C108.571 31.7614 107.751 31.4059 106.702 31.4059C105.754 31.4059 104.935 31.7389 104.244 32.4049C103.552 33.0709 103.207 33.9364 103.207 34.9999C103.207 36.0634 103.552 36.9289 104.244 37.5949C104.935 38.2609 105.754 38.5939 106.702 38.5939C107.707 38.5939 108.546 38.2594 109.216 37.5889C109.651 37.1524 109.903 36.5449 109.971 35.7664H106.702V34.6849H111.063C111.108 34.9204 111.127 35.1469 111.127 35.3644Z" stroke="#212121" stroke-width="0.2" stroke-miterlimit="10"/>
<path d="M118.042 31.6055H113.944V34.4585H117.64V35.54H113.944V38.393H118.042V39.5H112.788V30.5H118.042V31.6055Z" stroke="#212121" stroke-width="0.2" stroke-miterlimit="10"/>
<path d="M122.919 39.5H121.762V31.6055H119.248V30.5H125.433V31.6055H122.919V39.5Z" stroke="#212121" stroke-width="0.2" stroke-miterlimit="10"/>
<path d="M129.907 39.5V30.5H131.063V39.5H129.907Z" stroke="#212121" stroke-width="0.2" stroke-miterlimit="10"/>
<path d="M136.192 39.5H135.036V31.6055H132.522V30.5H138.706V31.6055H136.192V39.5Z" stroke="#212121" stroke-width="0.2" stroke-miterlimit="10"/>
<path d="M150.413 38.3375C149.528 39.2465 148.429 39.701 147.113 39.701C145.798 39.701 144.698 39.2465 143.815 38.3375C142.93 37.4285 142.489 36.3155 142.489 35C142.489 33.6845 142.93 32.5715 143.815 31.6625C144.698 30.7535 145.798 30.2975 147.113 30.2975C148.421 30.2975 149.519 30.755 150.407 31.6685C151.295 32.582 151.739 33.692 151.739 35C151.739 36.3155 151.297 37.4285 150.413 38.3375ZM144.668 37.583C145.334 38.258 146.149 38.594 147.113 38.594C148.078 38.594 148.894 38.2565 149.558 37.583C150.224 36.908 150.559 36.047 150.559 35C150.559 33.953 150.224 33.092 149.558 32.417C148.894 31.742 148.078 31.406 147.113 31.406C146.149 31.406 145.334 31.7435 144.668 32.417C144.004 33.092 143.669 33.953 143.669 35C143.669 36.047 144.004 36.908 144.668 37.583Z" stroke="#212121" stroke-width="0.2" stroke-miterlimit="10"/>
<path d="M153.362 39.5V30.5H154.769L159.143 37.5005H159.193L159.143 35.7665V30.5H160.3V39.5H159.092L154.516 32.159H154.466L154.516 33.893V39.5H153.362Z" stroke="#212121" stroke-width="0.2" stroke-miterlimit="10"/>
<path fill-rule="evenodd" clip-rule="evenodd" d="M55.3531 31.7148C55.1015 32.1531 54.9595 32.7256 54.9595 33.4145V66.5885C54.9595 67.279 55.1017 67.8512 55.3536 68.2893L73.6393 50.001L55.3531 31.7148ZM56.044 69.0131C56.7367 69.435 57.7042 69.394 58.771 68.789L80.2321 56.5938L74.3464 50.7081L56.044 69.0131ZM81.1348 56.0823L88.0225 52.169C90.118 50.9765 90.118 49.028 88.0225 47.837L81.1319 43.9216L75.0534 50.0009L81.1348 56.0823ZM80.2301 43.4092L58.771 31.2155C57.7042 30.6093 56.7366 30.5692 56.0439 30.9914L74.3463 49.2938L80.2301 43.4092Z" fill="#F17228"/>
</g>
<g filter="url(#filter1_dd_401_1829)">
<rect x="250.5" y="20" width="180" height="60" rx="7" fill="white"/>
<path d="M372.789 48.8014V52.2379H370.635V54.4916H372.789V62.1491C372.789 64.7638 373.972 65.8097 376.947 65.8097C377.47 65.8097 377.968 65.7475 378.404 65.6727V63.444C378.031 63.4813 377.794 63.5062 377.383 63.5062C376.051 63.5062 375.466 62.8837 375.466 61.4643V54.4916H378.404V52.2379H375.466V48.8014H372.789Z" fill="#212121"/>
<path d="M385.985 65.9965C389.945 65.9965 392.372 63.3444 392.372 58.9491C392.372 54.5788 389.932 51.9142 385.985 51.9142C382.026 51.9142 379.585 54.5788 379.585 58.9491C379.585 63.3444 382.013 65.9965 385.985 65.9965ZM385.985 63.6183C383.657 63.6183 382.349 61.9125 382.349 58.9491C382.349 56.0106 383.657 54.2924 385.985 54.2924C388.301 54.2924 389.621 56.0106 389.621 58.9491C389.621 61.9 388.301 63.6183 385.985 63.6183Z" fill="#212121"/>
<path d="M394.45 65.735H397.127V57.7289C397.127 55.8239 398.559 54.5414 400.588 54.5414C401.061 54.5414 401.858 54.6286 402.082 54.7033V52.0636C401.796 51.9889 401.286 51.9516 400.887 51.9516C399.119 51.9516 397.612 52.9227 397.226 54.255H397.027V52.1757H394.45V65.735Z" fill="#212121"/>
<path d="M408.729 54.1928C410.709 54.1928 412.004 55.5748 412.066 57.704H405.218C405.368 55.5873 406.75 54.1928 408.729 54.1928ZM412.054 62.0744C411.556 63.1327 410.448 63.7179 408.829 63.7179C406.687 63.7179 405.305 62.2113 405.218 59.8331V59.6837H414.793V58.7499C414.793 54.4916 412.514 51.9142 408.742 51.9142C404.919 51.9142 402.491 54.6659 402.491 58.9989C402.491 63.3319 404.869 65.9965 408.754 65.9965C411.855 65.9965 414.021 64.5023 414.631 62.0744H412.054Z" fill="#212121"/>
<path d="M355.233 60.7278C355.44 64.0573 358.215 66.1867 362.344 66.1867C366.758 66.1867 369.52 63.9541 369.52 60.3922C369.52 57.5918 367.945 56.0431 364.125 55.1527L362.073 54.6494C359.647 54.0815 358.666 53.3201 358.666 51.9909C358.666 50.3132 360.189 49.2163 362.473 49.2163C364.641 49.2163 366.138 50.2874 366.409 52.0038H369.223C369.055 48.8678 366.293 46.661 362.512 46.661C358.447 46.661 355.737 48.8678 355.737 52.1845C355.737 54.9204 357.272 56.5464 360.641 57.3337L363.041 57.9144C365.506 58.4951 366.59 59.3469 366.59 60.7665C366.59 62.4183 364.887 63.6185 362.564 63.6185C360.073 63.6185 358.344 62.4958 358.098 60.7278H355.233Z" fill="#212121"/>
<path d="M327.502 51.9516C325.66 51.9516 324.066 52.8729 323.244 54.4169H323.045V52.1757H320.467V70.2423H323.144V63.6806H323.356C324.066 65.1124 325.597 65.9591 327.527 65.9591C330.951 65.9591 333.13 63.2572 333.13 58.9491C333.13 54.641 330.951 51.9516 327.502 51.9516ZM326.743 63.556C324.502 63.556 323.095 61.788 323.095 58.9616C323.095 56.1227 324.502 54.3546 326.755 54.3546C329.021 54.3546 330.379 56.0853 330.379 58.9491C330.379 61.8253 329.021 63.556 326.743 63.556Z" fill="#212121"/>
<path d="M342.498 51.9516C340.655 51.9516 339.061 52.8729 338.239 54.4169H338.04V52.1757H335.463V70.2423H338.14V63.6806H338.351C339.061 65.1124 340.593 65.9591 342.522 65.9591C345.947 65.9591 348.126 63.2572 348.126 58.9491C348.126 54.641 345.947 51.9516 342.498 51.9516ZM341.738 63.556C339.497 63.556 338.09 61.788 338.09 58.9616C338.09 56.1227 339.497 54.3546 341.751 54.3546C344.017 54.3546 345.374 56.0853 345.374 58.9491C345.374 61.8253 344.017 63.556 341.738 63.556Z" fill="#212121"/>
<path d="M315.664 65.735H318.736L312.012 47.1127H308.902L302.178 65.735H305.147L306.863 60.7923H313.961L315.664 65.735ZM310.309 50.4939H310.528L313.225 58.3661H307.599L310.309 50.4939Z" fill="#212121"/>
<path d="M303.977 33.0664V42.0499H307.22C309.897 42.0499 311.447 40.4001 311.447 37.5302C311.447 34.7037 309.885 33.0664 307.22 33.0664H303.977ZM305.371 34.3364H307.065C308.926 34.3364 310.028 35.5193 310.028 37.5488C310.028 39.6095 308.945 40.7799 307.065 40.7799H305.371V34.3364Z" fill="#616161"/>
<path d="M316.195 42.1807C318.175 42.1807 319.389 40.8546 319.389 38.657C319.389 36.4718 318.169 35.1395 316.195 35.1395C314.215 35.1395 312.995 36.4718 312.995 38.657C312.995 40.8546 314.209 42.1807 316.195 42.1807ZM316.195 40.9916C315.031 40.9916 314.377 40.1387 314.377 38.657C314.377 37.1877 315.031 36.3286 316.195 36.3286C317.353 36.3286 318.013 37.1877 318.013 38.657C318.013 40.1324 317.353 40.9916 316.195 40.9916Z" fill="#616161"/>
<path d="M329.727 35.2703H328.388L327.181 40.4437H327.075L325.68 35.2703H324.398L323.003 40.4437H322.904L321.69 35.2703H320.333L322.2 42.0499H323.576L324.971 37.057H325.076L326.477 42.0499H327.866L329.727 35.2703Z" fill="#616161"/>
<path d="M331.268 42.0499H332.607V38.0842C332.607 37.0259 333.236 36.366 334.226 36.366C335.215 36.366 335.689 36.9076 335.689 37.9971V42.0499H337.027V37.6609C337.027 36.0485 336.193 35.1395 334.68 35.1395C333.659 35.1395 332.987 35.594 332.657 36.3473H332.557V35.2703H331.268V42.0499Z" fill="#616161"/>
<path d="M339.135 42.0499H340.474V32.6244H339.135V42.0499Z" fill="#616161"/>
<path d="M345.508 42.1807C347.487 42.1807 348.701 40.8546 348.701 38.657C348.701 36.4718 347.481 35.1395 345.508 35.1395C343.528 35.1395 342.308 36.4718 342.308 38.657C342.308 40.8546 343.522 42.1807 345.508 42.1807ZM345.508 40.9916C344.343 40.9916 343.69 40.1387 343.69 38.657C343.69 37.1877 344.343 36.3286 345.508 36.3286C346.666 36.3286 347.325 37.1877 347.325 38.657C347.325 40.1324 346.666 40.9916 345.508 40.9916Z" fill="#616161"/>
<path d="M352.689 41.0352C351.961 41.0352 351.432 40.6803 351.432 40.0702C351.432 39.4725 351.855 39.155 352.789 39.0928L354.445 38.9869V39.5535C354.445 40.3939 353.698 41.0352 352.689 41.0352ZM352.347 42.162C353.237 42.162 353.978 41.776 354.383 41.0974H354.489V42.0499H355.777V37.4181C355.777 35.9862 354.819 35.1395 353.119 35.1395C351.581 35.1395 350.486 35.8866 350.349 37.0508H351.644C351.793 36.5714 352.31 36.2975 353.057 36.2975C353.972 36.2975 354.445 36.7021 354.445 37.4181V38.0033L352.608 38.1091C350.996 38.2087 350.087 38.9122 350.087 40.1324C350.087 41.3713 351.04 42.162 352.347 42.162Z" fill="#616161"/>
<path d="M360.319 42.162C361.253 42.162 362.044 41.72 362.449 40.9791H362.554V42.0499H363.837V32.6244H362.498V36.3473H362.399C362.032 35.6002 361.247 35.1582 360.319 35.1582C358.607 35.1582 357.506 36.5154 357.506 38.657C357.506 40.8048 358.595 42.162 360.319 42.162ZM360.699 36.3597C361.82 36.3597 362.523 37.25 362.523 38.6632C362.523 40.0826 361.826 40.9604 360.699 40.9604C359.566 40.9604 358.888 40.0951 358.888 38.657C358.888 37.2313 359.572 36.3597 360.699 36.3597Z" fill="#616161"/>
<path d="M372.517 42.1807C374.496 42.1807 375.71 40.8546 375.71 38.657C375.71 36.4718 374.49 35.1395 372.517 35.1395C370.537 35.1395 369.317 36.4718 369.317 38.657C369.317 40.8546 370.531 42.1807 372.517 42.1807ZM372.517 40.9916C371.352 40.9916 370.699 40.1387 370.699 38.657C370.699 37.1877 371.352 36.3286 372.517 36.3286C373.675 36.3286 374.335 37.1877 374.335 38.657C374.335 40.1324 373.675 40.9916 372.517 40.9916Z" fill="#616161"/>
<path d="M377.482 42.0499H378.821V38.0842C378.821 37.0259 379.449 36.366 380.439 36.366C381.429 36.366 381.902 36.9076 381.902 37.9971V42.0499H383.241V37.6609C383.241 36.0485 382.407 35.1395 380.894 35.1395C379.873 35.1395 379.2 35.594 378.87 36.3473H378.771V35.2703H377.482V42.0499Z" fill="#616161"/>
<path d="M389.405 33.5831V35.3014H388.328V36.4282H389.405V40.257C389.405 41.5643 389.997 42.0873 391.485 42.0873C391.746 42.0873 391.995 42.0562 392.213 42.0188V40.9044C392.026 40.9231 391.908 40.9355 391.703 40.9355C391.037 40.9355 390.744 40.6243 390.744 39.9146V36.4282H392.213V35.3014H390.744V33.5831H389.405Z" fill="#616161"/>
<path d="M394.01 42.0499H395.348V38.0905C395.348 37.0632 395.958 36.3722 397.054 36.3722C398 36.3722 398.505 36.92 398.505 38.0033V42.0499H399.843V37.6733C399.843 36.0609 398.953 35.1458 397.509 35.1458C396.488 35.1458 395.772 35.6002 395.442 36.3597H395.336V32.6244H394.01V42.0499Z" fill="#616161"/>
<path d="M404.672 36.2788C405.662 36.2788 406.309 36.9698 406.34 38.0344H402.916C402.991 36.9761 403.682 36.2788 404.672 36.2788ZM406.334 40.2196C406.085 40.7488 405.531 41.0414 404.722 41.0414C403.651 41.0414 402.96 40.2881 402.916 39.099V39.0243H407.704V38.5574C407.704 36.4282 406.564 35.1395 404.678 35.1395C402.767 35.1395 401.553 36.5154 401.553 38.6819C401.553 40.8484 402.742 42.1807 404.684 42.1807C406.234 42.1807 407.318 41.4336 407.623 40.2196H406.334Z" fill="#616161"/>
<path d="M287.653 50.4512C287.686 47.9297 289.04 45.5438 291.188 44.2231C289.833 42.2877 287.563 41.0605 285.202 40.9866C282.683 40.7222 280.241 42.4939 278.957 42.4939C277.649 42.4939 275.673 41.0129 273.544 41.0567C270.771 41.1463 268.185 42.7233 266.835 45.1485C263.934 50.1711 266.098 57.5527 268.877 61.6126C270.267 63.6006 271.892 65.8213 274.018 65.7425C276.099 65.6562 276.876 64.4158 279.387 64.4158C281.876 64.4158 282.605 65.7425 284.774 65.6925C287.007 65.6562 288.413 63.6956 289.755 61.6887C290.754 60.2722 291.522 58.7066 292.032 57.05C289.409 55.9403 287.657 53.2999 287.653 50.4512Z" fill="#F17228"/>
<path d="M283.556 38.3166C284.773 36.8553 285.373 34.977 285.228 33.0807C283.368 33.276 281.65 34.1649 280.416 35.5701C279.21 36.9431 278.582 38.7883 278.701 40.6122C280.561 40.6313 282.39 39.7666 283.556 38.3166Z" fill="#F17228"/>
</g>
<defs>
<filter id="filter0_dd_401_1829" x="0" y="0" width="282.5" height="140" filterUnits="userSpaceOnUse" color-interpolation-filters="sRGB">
<feFlood flood-opacity="0" result="BackgroundImageFix"/>
<feColorMatrix in="SourceAlpha" type="matrix" values="0 0 0 0 0 0 0 0 0 0 0 0 0 0 0 0 0 0 127 0" result="hardAlpha"/>
<feOffset dy="20"/>
<feGaussianBlur stdDeviation="20"/>
<feColorMatrix type="matrix" values="0 0 0 0 1 0 0 0 0 0.680498 0 0 0 0 0 0 0 0 0.29 0"/>
<feBlend mode="normal" in2="BackgroundImageFix" result="effect1_dropShadow_401_1829"/>
<feColorMatrix in="SourceAlpha" type="matrix" values="0 0 0 0 0 0 0 0 0 0 0 0 0 0 0 0 0 0 127 0" result="hardAlpha"/>
<feOffset dy="5"/>
<feGaussianBlur stdDeviation="5"/>
<feColorMatrix type="matrix" values="0 0 0 0 1 0 0 0 0 0.680498 0 0 0 0 0 0 0 0 0.26 0"/>
<feBlend mode="normal" in2="effect1_dropShadow_401_1829" result="effect2_dropShadow_401_1829"/>
<feBlend mode="normal" in="SourceGraphic" in2="effect2_dropShadow_401_1829" result="shape"/>
</filter>
<filter id="filter1_dd_401_1829" x="210.5" y="0" width="260" height="140" filterUnits="userSpaceOnUse" color-interpolation-filters="sRGB">
<feFlood flood-opacity="0" result="BackgroundImageFix"/>
<feColorMatrix in="SourceAlpha" type="matrix" values="0 0 0 0 0 0 0 0 0 0 0 0 0 0 0 0 0 0 127 0" result="hardAlpha"/>
<feOffset dy="20"/>
<feGaussianBlur stdDeviation="20"/>
<feColorMatrix type="matrix" values="0 0 0 0 1 0 0 0 0 0.680498 0 0 0 0 0 0 0 0 0.29 0"/>
<feBlend mode="normal" in2="BackgroundImageFix" result="effect1_dropShadow_401_1829"/>
<feColorMatrix in="SourceAlpha" type="matrix" values="0 0 0 0 0 0 0 0 0 0 0 0 0 0 0 0 0 0 127 0" result="hardAlpha"/>
<feOffset dy="5"/>
<feGaussianBlur stdDeviation="5"/>
<feColorMatrix type="matrix" values="0 0 0 0 1 0 0 0 0 0.680498 0 0 0 0 0 0 0 0 0.26 0"/>
<feBlend mode="normal" in2="effect1_dropShadow_401_1829" result="effect2_dropShadow_401_1829"/>
<feBlend mode="normal" in="SourceGraphic" in2="effect2_dropShadow_401_1829" result="shape"/>
</filter>
</defs>
</svg>
