<svg width="29" height="25" viewBox="0 0 29 25" fill="none" xmlns="http://www.w3.org/2000/svg">
<path d="M26.5 6.66667H25.6666V2.5C25.6666 1.83696 25.4032 1.20107 24.9344 0.732233C24.4655 0.263392 23.8297 0 23.1666 0H3.16663C2.50358 0 1.8677 0.263392 1.39886 0.732233C0.930018 1.20107 0.666626 1.83696 0.666626 2.5V15.8333C0.666626 16.4964 0.930018 17.1323 1.39886 17.6011C1.8677 18.0699 2.50358 18.3333 3.16663 18.3333H3.99996V19.8333C4.00064 20.0802 4.0743 20.3213 4.21167 20.5264C4.34904 20.7315 4.54399 20.8914 4.77201 20.986C5.00002 21.0806 5.25092 21.1057 5.49313 21.058C5.73535 21.0104 5.95807 20.8922 6.13329 20.7183L8.51163 18.3333H10.6666V19.1667C10.6666 19.8297 10.93 20.4656 11.3989 20.9344C11.8677 21.4033 12.5036 21.6667 13.1666 21.6667H21.155L23.5333 24.045C23.7078 24.2193 23.93 24.3381 24.1718 24.3864C24.4137 24.4347 24.6645 24.4103 24.8925 24.3164C25.1206 24.2225 25.3158 24.0633 25.4535 23.8587C25.5913 23.6541 25.6654 23.4133 25.6666 23.1667V21.6667H26.5C27.163 21.6667 27.7989 21.4033 28.2677 20.9344C28.7366 20.4656 29 19.8297 29 19.1667V9.16667C29 8.50363 28.7366 7.86774 28.2677 7.3989C27.7989 6.93006 27.163 6.66667 26.5 6.66667ZM24 15.8333C24 16.0543 23.9122 16.2663 23.7559 16.4226C23.5996 16.5789 23.3876 16.6667 23.1666 16.6667H8.16663C8.05712 16.6665 7.94865 16.6879 7.84741 16.7296C7.74617 16.7714 7.65416 16.8327 7.57663 16.91L5.66663 18.8217V17.5C5.66663 17.279 5.57883 17.067 5.42255 16.9107C5.26627 16.7545 5.05431 16.6667 4.83329 16.6667H3.16663C2.94561 16.6667 2.73365 16.5789 2.57737 16.4226C2.42109 16.2663 2.33329 16.0543 2.33329 15.8333V2.5C2.33329 2.27899 2.42109 2.06702 2.57737 1.91074C2.73365 1.75446 2.94561 1.66667 3.16663 1.66667H23.1666C23.3876 1.66667 23.5996 1.75446 23.7559 1.91074C23.9122 2.06702 24 2.27899 24 2.5V15.8333Z" fill="#2E2E2E"/>
</svg>
